<?xml version="1.0" encoding="UTF-8"?>
<!-- Generator: Adobe Illustrator 19.0.0, SVG Export Plug-In . SVG Version: 6.00 Build 0)  -->
<svg version="1.1" id="Calque_1" xmlns="http://www.w3.org/2000/svg" xmlns:xlink="http://www.w3.org/1999/xlink" x="0px" y="0px" viewBox="0 0 270 45" style="enable-background:new 0 0 270 45;" xml:space="preserve">
<style type="text/css">
	.st0{fill-rule:evenodd;clip-rule:evenodd;fill:#706F6F;}
	.st1{fill:#706F6F;}
</style>
<g id="XMLID_14_">
	<g id="XMLID_189_">
		<path id="XMLID_596_" class="st0" d="M36.8,38c-1.1,1.6-6.9,3.3-7.6-0.7c8.1-4,8-13.4,3.6-15.6c-4-1.9-9.2,3.6-9.2,12.2    c-0.5,0-0.9,0.1-1.4,0c-1.1-0.2-1.9-0.8-2.9-1c0.6,1.3,1.5,2.4,1.8,4c0.8,0.6,1.9,1,3.4,1c4,8.6,11.3,6.1,12.9,3.5    c0.1-1.6,0.2-3.1,0.4-4.6C37.4,37.2,37.2,37.6,36.8,38 M31.3,24.6c1.6,0.5,0.3,8-3.2,8.5C27.3,30.2,29.6,24.1,31.3,24.6"/>
		<path id="XMLID_589_" class="st0" d="M21.7,2.4c-8,0.7-8.3,10.2-8.5,12.6c-0.1,2.3-0.1,4.7-0.1,7.1c0,3.2,0.2,6.4-0.3,9.5    c-0.2,1.5-0.3,3.1-1,4.4c-0.3,0.6-5.9-3.1-10.9,1.2c-1.9,1.8-0.7,4.6,0,5.4c2,2.9,8.5,1.9,11.6-1c0.9,0.8,7.7,6.4,11.9,0.8    c-4.9,0.2-7.5-3.6-9.3-4.8c-0.2-0.5,1-3.1,1.2-3.7c2.4-7.5,0.6-21.2,2.8-25.7c0.6-1.2,1.3-2.1,3.2-2c1.4,0,2.6,1.9,2.8,2.4    c0.1,0.2,0,0.4,0.2,0.6c0.6,0.3,3.4-2.2,3.8-3C27.7,3.9,25.5,2.1,21.7,2.4 M3.6,39c1.1-1.6,4.9-0.9,5.9,0.4    C8.2,40.6,4.1,41.1,3.6,39"/>
		<path id="XMLID_547_" class="st0" d="M191.6,13.6c0.8-0.3,2-0.5,2.8,0c1.1,0.6,1.9,2.3,1.5,3.9c-0.3,0.9-1.7,2.2-2.7,2.3    c-2,0.2-3.1-1.2-3.3-2.9C189.9,15.3,190.6,14.4,191.6,13.6"/>
		<path id="XMLID_545_" class="st0" d="M69.3,24.5c-1-1.3-1.9-2.8-3-4c0.4-0.4,0.9-0.5,1.4-0.9c6.6-5.6,3-11.9,1.6-13    c-0.9-0.8-2.2-1.4-3.9-1.2c-7.7,0.8-8.7,8.4-8.6,9.8c-0.2,0-0.5-0.4-0.6-0.7c-0.8-1-1.9-2.5-2.9-3.4c-0.3-0.3-0.6-0.4-0.6-0.7    c-0.3-1.4,5.7-12.4,17.5-8.1c1.9,0.9,3,2.2,4.1,3.8c0.8,1.2,1.4,2.5,1.7,4.1C77.6,18.9,70.2,23.1,69.3,24.5"/>
		<path id="XMLID_544_" class="st0" d="M107.3,14.9c0.9-0.2,2,0.1,2.6,0.7c0.6,0.6,0.8,1.6,0.3,2.6c-0.2,0.4-0.5,0.8-0.7,1    c-1.4,1.4-4.8,0.3-4.4-2.1c0-0.2,0.4-1.1,0.6-1.3C106,15.4,106.6,15.1,107.3,14.9"/>
		<path id="XMLID_461_" class="st0" d="M68.4,10.3c-0.7,0.8-1.7,1.5-2.3,2.6C64,16.4,66.5,33.4,64,38.7c-1.7,3.9-4.6,5.2-7,5.6    c-1.2-1.8-2.2-3.7-3-5.8c1.8,1.1,4.4,0.4,5.4-1.4c0.3-0.6,0.5-1.4,0.7-2.1c0.7-3.2,0.5-7.7,0.5-10.7c0-3.9,0-8.3,1-11.7    c0.4-1.3,2-4.4,3.8-5.1C65.8,7.4,67.5,9.7,68.4,10.3"/>
		<path id="XMLID_377_" class="st0" d="M163.1,24.8c-1.1-1.3-2-2.9-3.1-4.1c0.4-0.4,0.9-0.6,1.4-0.9c6.9-5.8,3.1-12.3,1.7-13.5    c-1-0.8-2.2-1.4-4.1-1.3c-8,0.8-9.1,8.8-8.9,10.2c-0.2,0-0.5-0.5-0.7-0.7c-0.8-1.1-2-2.6-3-3.6c-0.3-0.3-0.6-0.4-0.7-0.7    c-0.3-1.5,6-13,18.2-8.4c1.9,1,3.1,2.3,4.3,4c0.8,1.2,1.5,2.6,1.8,4.3C171.7,19.1,164,23.4,163.1,24.8"/>
		<path id="XMLID_376_" class="st0" d="M162.2,10.1c-0.8,0.9-1.8,1.6-2.4,2.7c-2.2,3.7,0.4,21.4-2.3,26.9c-1.8,4-4.8,5.4-7.3,5.8    c-1.2-1.8-2.3-3.8-3.1-6.1c1.9,1.1,4.6,0.4,5.7-1.4c0.3-0.6,0.6-1.4,0.7-2.2c0.7-3.4,0.5-8,0.5-11.1c0-4,0-8.6,1-12.2    c0.4-1.3,2.1-4.6,3.9-5.3C159.4,7.1,161.3,9.5,162.2,10.1"/>
		<path id="XMLID_261_" class="st0" d="M129.6,34.6c-0.9,0.5-1.8,3.7-3.3,4.8c-4.7,3.4-3.7-3.5-3.8-5.5c0-0.2,0.1-7.7,0.3-9    c1.4,0,2.6-0.1,4.1,0c0.5-0.5,2.4-2.9,2.7-3.6c-1.3,0-2.7,0-4,0c-0.7,0-2.6,0-2.7-0.1c-0.3-0.2,0.7-9.2,0.7-10.1    c0.1-1.2-0.1-2.6-1-2.9c-1.3,0-3.2,2.1-3.3,2.4c-0.1,0.2-0.4,6.5-0.4,7c0,1.3,0,2.5-0.1,3.6c-1,0.1-2.1-0.2-2.9,0    c-0.4,0.1-1.1,0.6-1.2,0.9c-0.5,0.8-0.6,2,0.1,2.7c0.3,0.5,2.7,0.2,3.8,0.3c0,2.5,0,3.8-0.1,6.3c-0.1,3.5-4.4,6.7-5.2,7.3    c-1.5,1.5-3.4,0.4-3.5-1c-0.2-1.9,0.2-11.4,0.2-12.4c0.1-1.1,0-2.4-0.3-3c-0.3-0.5-1.3-1-1.9-1c-0.6,0-1.3,0.5-1.7,0.8    c-0.6,0.6-0.6,2.1-0.7,3.4c-0.1,1,0.1,7-0.1,7.9c-0.1,3-4.9,7.3-8.4,5.9c-2.5-1.2-1.2-9.3-1.1-10.2c0.1-1.8,0-3.3,0.2-4.6    c1.1-0.1,3.2-0.1,3.4-0.3c0.7-0.9,1.4-1.6,1.8-2.6c0.3-0.4-3.5-0.3-5.2-0.2c0.1-2.2,0.4-10.9,0.5-13c0.1-1.5-4.6,3.6-4.7,4.2    c-0.1,0.6-0.1,1.3-0.1,2c-0.2,2.3-0.2,4.7-0.3,6.8c-0.6,0-2.9-0.1-3.2,0.2c-0.6,0.5-0.8,1.7-0.4,2.6c0.4,1.1,2.4,0,3.6,0.6    c0,2.3-0.3,7.4-0.4,8.1c-0.3,2.9-4.5,10.3-10.4,6.2c2.2-1.7,9.2-15.4,0.6-17.9c-4.7-1.4-10.3,7.6-6.2,17.7c-1.6,1-3.5,2.3-5.9,2.2    c0.2,0.6,1.2,2.9,1.6,3.4c4.4,0.4,5.7-2.1,6.7-2.2c1.7,1.7,4.8,2.8,7.9,2.1c2.1-0.4,5.1-2.8,6.2-4.4c0.7,2.2,2.4,4.3,5.2,4.5    c3,0.3,5.6-2.1,6.8-3.2c0.6-0.6,1.1-1.5,1.9-1.8c0.2,1.5,0.8,2.7,1.8,3.6c5.6,4.6,10.9-4.3,11.2-4.4c0.1,2.2,1,3.4,2,4.6    c2.6,3,5.6,0.9,5.9,0.8c1.4-0.7,4.8-3.7,4.8-4.7C131,37.5,130.1,34.9,129.6,34.6 M80.1,33.2c-0.4,0.9-1.2,1.8-1.8,2.6    c-0.4-0.4-0.4-1.2-0.6-1.9c-0.5-2.3-0.2-5.6,0.9-7.6c0.2-0.4,0.6-1.1,0.9-1.3c0.3-0.2,1.2-0.5,1.6-0.2c0.4,0.2,0.6,1.2,0.7,1.7    c0.1,0.6-0.1,1.4-0.2,2.1c-0.1,0.7-0.2,1.4-0.3,1.9c-0.2,0.8-0.7,1.5-1,2.1C80.2,32.8,80.1,33,80.1,33.2"/>
		<path id="XMLID_191_" class="st0" d="M251.8,38c1.1-1.4,3.7-3.6,4.9-7.8c0.3-1.1,2.5-6.3-2.4-8.9c-3.3-2-8.5,1.8-9.3,7.9    c-0.3,2.9,0.4,5.7,1.1,7.9c-1.4,1.8-3.8,3.7-7,3.7c-3.8,0-8.1-6.2-5.6-10.7c3.2-7,6.8-3.2,7.8-1.4c0.3-1.1,1.3-4.4,1.2-4.7    c-3.7-6.4-14.4-1.7-14.3,11.3c0,1-3.4,4.6-4.9,4.6c-0.4-0.1-0.6-0.5-0.8-1c-0.5-0.9,1-8.7,1.1-11.3c0.1-4.9-2.4-6-5.4-6.3    c-4.4-0.3-5.6,3.4-5.9,3.7c-1.7-3.5-3.4-3.8-4.3-3.9c-6.9-0.3-8.6,20.9-12.8,18.6c-1.4-1.1,0.5-16.4,0.5-16.7    c-0.3-1.8-5.2-2.9-5.1,1c1.1,17.2-6,16.1-6.9,15.4c-2.8-2.5,1.2-13.2,1.8-14.4c0.2-0.4,0.7-0.9,0.7-1.2c0-0.5-1.5-3-1.8-3.1    c-0.2,0-6.4,3.3-7.7-1c-0.2-0.4-0.4-1.1-0.8-1.1c-0.2,0-2.7,1.6-3.4,2.2c0.3,0.6,0.5,1.4,0.8,2c-0.2,1.4-2.2,19.6-7.9,16.6    c-0.3-0.3-0.7-0.7-1.1-0.7c-0.2,1.8-0.7,3.6-0.9,5.3c12.3,3.9,13.2-14.5,13.7-18.3c1.1,0.3,2.2,0,3.3-0.2    c-0.6,1.3-0.9,2.8-1.3,4.4c-0.9,3.5-1.6,9,0.2,12.2c0.3,0.6,0.8,1.3,1.2,1.7c0.7,0.5,1.7,0.9,2.6,1c0.4,0,0.8,0,1.1,0    c2.7-0.3,4.4-2.6,6-4c0.6,2.4,2,4.1,5,3.8c8.7-1,10.2-18.5,12.9-18.2c2.5,0.3-0.3,13.3-0.2,14.9c-0.2,2,1.1,3.2,2.1,3.3    c1.4,0.2,2.2-0.8,2.6-1.7c0.6-1,0.5-14.2,3.4-16.1c0.7-0.7,1.5-0.7,2.5-0.4c2.4,2.7-2.3,15.8,0.5,17.4c0.4,0.4,5,3.2,10-3.9    c0.9,1.6,4.8,6.2,10.8,4.7c2.2-0.3,6.3-3.1,7.8-4.2c0.9,1.5,5.9,5.5,9.8,3.6c0.2-0.2,0.2-0.9,0.3-1.4c0.3-1.5,0.7-2.7,1-3.8    C258,38.8,255.4,40.5,251.8,38 M249.6,34.2c-2-6.7,0.5-9.1,1.1-9.5c0.7-0.3,1.8-0.1,2.2,0.6C254.7,28.3,250,35.1,249.6,34.2"/>
	</g>
	<g id="XMLID_16_">
		<path id="XMLID_114_" class="st1" d="M264.9,9.4c2.6,0,4.7,2.1,4.7,4.8c0,2.7-2.1,4.8-4.7,4.8c-2.6,0-4.8-2.1-4.8-4.8    C260.1,11.5,262.3,9.4,264.9,9.4L264.9,9.4z M264.9,10.1c-2.1,0-3.8,1.8-3.8,4.1c0,2.3,1.7,4.1,3.9,4.1c2.1,0,3.8-1.8,3.8-4.1    C268.8,11.9,267.1,10.1,264.9,10.1L264.9,10.1z M264,17h-0.9v-5.4c0.4-0.1,0.9-0.1,1.5-0.1c0.8,0,1.3,0.2,1.7,0.4    c0.3,0.2,0.5,0.6,0.5,1.1c0,0.7-0.5,1.1-1,1.3v0c0.5,0.1,0.8,0.5,0.9,1.3c0.1,0.8,0.3,1.2,0.3,1.3h-0.9c-0.1-0.2-0.3-0.7-0.4-1.4    c-0.1-0.7-0.5-0.9-1.2-0.9H264V17z M264,14h0.6c0.7,0,1.3-0.3,1.3-0.9c0-0.5-0.3-0.9-1.3-0.9c-0.3,0-0.5,0-0.6,0V14z"/>
	</g>
</g>
</svg>